<?xml version="1.0" encoding="UTF-8" standalone="no"?>
<!-- Created with Inkscape (http://www.inkscape.org/) -->

<svg
   xmlns:dc="http://purl.org/dc/elements/1.1/"
   xmlns:cc="http://creativecommons.org/ns#"
   xmlns:rdf="http://www.w3.org/1999/02/22-rdf-syntax-ns#"
   xmlns:svg="http://www.w3.org/2000/svg"
   xmlns="http://www.w3.org/2000/svg"
   xmlns:sodipodi="http://sodipodi.sourceforge.net/DTD/sodipodi-0.dtd"
   xmlns:inkscape="http://www.inkscape.org/namespaces/inkscape"
   version="1.1"
   width="1000"
   height="1000"
   id="svg2"
   xml:space="preserve"
   inkscape:version="0.48.2 r9819"
   sodipodi:docname="logo.svg"><sodipodi:namedview
     pagecolor="#ffffff"
     bordercolor="#666666"
     borderopacity="1"
     objecttolerance="10"
     gridtolerance="10"
     guidetolerance="10"
     inkscape:pageopacity="0"
     inkscape:pageshadow="2"
     inkscape:window-width="640"
     inkscape:window-height="480"
     id="namedview36"
     showgrid="false"
     inkscape:zoom="0.236"
     inkscape:cx="500"
     inkscape:cy="500"
     inkscape:window-x="0"
     inkscape:window-y="0"
     inkscape:window-maximized="0"
     inkscape:current-layer="svg2" /><metadata
     id="metadata8"><rdf:RDF><cc:Work
         rdf:about=""><dc:format>image/svg+xml</dc:format><dc:type
           rdf:resource="http://purl.org/dc/dcmitype/StillImage" /><dc:title></dc:title></cc:Work></rdf:RDF></metadata><defs
     id="defs6"><clipPath
       id="clipPath16"><path
         d="M 0,800 800,800 800,0 0,0 0,800 z"
         inkscape:connector-curvature="0"
         id="path18" /></clipPath></defs><g
     id="g3102"><g
       transform="matrix(1.25,0,0,-1.25,701.63088,491.0345)"
       id="g20"><path
         d="M 0,0 -0.41,0.439 -14.6,15.48 -0.32,31 l 0.361,0.391 0.32,0.429 c 2.739,3.7 4.19,8 4.19,12.43 0,3.68 -1.17,9.07 -6.75,13.891 -2.881,2.489 -6.344,4.152 -10.17,4.923 2.23,1.266 4.324,2.788 6.269,4.577 6.94,6.319 10.6,15.129 10.6,25.499 0,9.8 -3.59,17.89 -10.41,23.59 3.271,2.06 6.471,5.64 8.42,11.81 1.301,4.13 3.9,18.09 -17.02,24.7 l -0.09,0.03 -0.09,0.03 c -5.54,1.64 -12,2.47 -19.2,2.47 -8.89,0 -16.7,-3.14 -23.2,-9.32 -0.505,-0.477 -0.985,-0.972 -1.454,-1.475 -2.993,5.596 -8.728,8.905 -16.256,8.905 l -26.721,0 c -5.594,0 -10.22,-1.376 -13.804,-4.068 -3.583,2.692 -8.209,4.068 -13.805,4.068 -6.16,0 -11.16,-1.65 -14.87,-4.91 -1.095,-0.962 -2.268,-2.248 -3.294,-3.911 -5.746,5.771 -13.065,8.821 -21.306,8.821 l -24.93,0 c -5.33,0 -9.786,-1.24 -13.295,-3.685 -1.869,1.433 -4.083,2.484 -6.595,3.085 1.46,2.99 2.09,6.29 1.79,9.71 -0.49,5.72 -3.01,10.58 -7.28,14.04 -3.37,2.73 -7.37,4.17 -11.58,4.17 -1.4,0 -2.83,-0.16 -4.26,-0.48 -3.8,-0.84 -9.18,-3.25 -13.19,-9.93 -1.98,-3.28 -3.82,-6.86 -5.47,-10.63 -1.18,-2.71 -1.71,-5.41 -1.63,-7.99 -1.96,-0.79 -3.71,-1.86 -5.24,-3.2 -0.086,-0.075 -0.174,-0.159 -0.261,-0.239 -2.459,1.693 -5.605,3.238 -9.629,4.509 l -0.09,0.03 -0.09,0.03 c -5.54,1.64 -12,2.47 -19.2,2.47 -8.9,0 -16.71,-3.14 -23.21,-9.32 -6.65,-6.29 -10.17,-14.83 -10.17,-24.7 0,-7.9 2.5,-14.67 7.3,-19.93 -7.17,-2.34 -11.53,-8.81 -11.53,-17.78 0,-10.12 6.15,-18 16.88,-21.61 7.711,-2.6 15.78,-3.92 23.98,-3.92 9.116,0 16.958,2.719 23.351,8.088 0.863,-1.211 1.792,-2.187 2.669,-2.957 3.71,-3.261 8.71,-4.911 14.87,-4.911 l 26.72,0 c 4.743,0 8.769,1.323 11.856,3.69 3.51,-2.447 7.97,-3.69 13.304,-3.69 1.402,0 2.737,0.097 4.018,0.268 -4.243,-3.434 -6.678,-8.685 -6.678,-15.219 l 0,-55.779 c 0,-7.741 3.34,-12.299 6.15,-14.77 3.71,-3.26 8.71,-4.91 14.87,-4.91 6.16,0 11.16,1.65 14.87,4.91 2.8,2.471 6.15,7.029 6.15,14.77 l 0,3.589 4.72,-5.509 4.67,5.49 0,-3.57 c 0,-7.741 3.35,-12.299 6.16,-14.77 3.7,-3.26 8.7,-4.91 14.86,-4.91 5.594,0 10.221,1.377 13.805,4.068 3.583,-2.691 8.209,-4.068 13.805,-4.068 5.623,0 10.267,1.39 13.858,4.109 3.668,-2.67 8.116,-4.156 12.962,-4.299 0.22,-0.009 0.45,-0.009 0.67,-0.009 5.81,0 10.94,2.209 14.84,6.379 l 10.83,11.57 10.85,-11.58 c 3.8,-4.09 8.92,-6.26 14.77,-6.26 0.23,0 0.46,0 0.69,0.01 5.5,0.16 10.301,1.89 14.25,5.14 5.75,4.741 6.961,10.129 6.961,13.821 0,4.359 -1.451,8.619 -4.19,12.319 L 0,0 z"
         inkscape:connector-curvature="0"
         id="path22"
         style="fill:#3a3a3a;fill-opacity:1;fill-rule:nonzero;stroke:none" /></g><g
       transform="matrix(1.25,0,0,-1.25,666.29275,471.79138)"
       id="g24"><path
         d="m 0,0 20.596,-21.82 c 1.483,-2.005 2.226,-4.13 2.226,-6.374 0,-2.246 -1.104,-4.279 -3.311,-6.096 -2.209,-1.818 -4.937,-2.775 -8.184,-2.867 -3.247,-0.093 -5.872,0.938 -7.876,3.09 l -18.146,19.372 -18.147,-19.372 c -2.079,-2.226 -4.714,-3.295 -7.904,-3.201 -3.192,0.092 -5.883,1.066 -8.071,2.922 -2.191,1.855 -3.285,3.906 -3.285,6.152 0,2.244 0.742,4.369 2.227,6.374 L -29.391,0 -49.875,22.377 c -1.485,2.004 -2.227,4.155 -2.227,6.457 0,2.3 1.085,4.406 3.256,6.317 2.171,1.912 4.862,2.931 8.072,3.062 3.21,0.129 5.853,-0.956 7.932,-3.256 L -14.695,15.029 3.451,34.957 c 2.04,2.227 4.685,3.293 7.932,3.2 3.247,-0.093 5.965,-1.085 8.155,-2.977 2.19,-1.893 3.284,-4 3.284,-6.319 0,-2.32 -0.743,-4.48 -2.226,-6.484 L 0,0 z"
         inkscape:connector-curvature="0"
         id="path26"
         style="fill:#e12f31;fill-opacity:1;fill-rule:nonzero;stroke:none" /></g><g
       transform="matrix(1.25,0,0,-1.25,595.2515,506.02537)"
       id="g28"><path
         d="m 0,0 c 0,-6.457 -3.674,-9.686 -11.021,-9.686 -7.348,0 -11.022,3.229 -11.022,9.686 l 0,55.776 c 0,6.457 3.674,9.685 11.022,9.685 C -3.674,65.461 0,62.233 0,55.776 L 0,0 z"
         inkscape:connector-curvature="0"
         id="path30"
         style="fill:#e12f31;fill-opacity:1;fill-rule:nonzero;stroke:none" /></g><g
       transform="matrix(1.25,0,0,-1.25,343.76225,405.39737)"
       id="g32"><path
         d="m 0,0 c -7.145,0 -14.074,1.133 -20.791,3.396 -6.717,2.263 -10.075,6.309 -10.075,12.135 0,5.825 2.635,8.74 7.904,8.74 0.779,0 3.878,-1.022 9.296,-3.062 5.418,-2.041 10.103,-3.062 14.056,-3.062 3.952,0 5.927,1.67 5.927,5.01 0,2.19 -1.354,4.017 -4.063,5.484 -2.709,1.464 -6.484,2.996 -11.327,4.591 -4.843,1.595 -7.877,2.801 -9.102,3.619 -5.64,3.747 -8.461,9.212 -8.461,16.392 0,7.181 2.357,12.998 7.07,17.451 4.601,4.378 10.038,6.569 16.309,6.569 6.272,0 11.727,-0.688 16.365,-2.06 8.684,-2.747 12.181,-6.801 10.494,-12.163 -1.69,-5.362 -4.779,-7.858 -9.269,-7.486 -0.408,0 -2.635,0.759 -6.68,2.282 -4.045,1.52 -7.635,2.282 -10.77,2.282 -3.137,0 -4.704,-1.541 -4.704,-4.62 0,-1.968 1.326,-3.665 3.98,-5.094 2.653,-1.428 6.392,-2.987 11.216,-4.675 4.824,-1.689 7.886,-2.978 9.185,-3.869 5.714,-3.86 8.572,-9.601 8.572,-17.227 0,-7.626 -2.449,-13.666 -7.348,-18.119 C 13.071,2.172 7.143,0 0,0"
         inkscape:connector-curvature="0"
         id="path34"
         style="fill:#f19c1f;fill-opacity:1;fill-rule:nonzero;stroke:none" /></g><g
       transform="matrix(1.25,0,0,-1.25,420.12575,279.45612)"
       id="g36"><path
         d="m 0,0 c 2.152,-1.745 3.358,-4.119 3.618,-7.125 0.26,-3.006 -0.928,-5.622 -3.562,-7.849 -2.635,-2.226 -5.594,-4.268 -8.878,-6.123 -3.284,-1.856 -6.179,-1.837 -8.684,0.056 -2.505,1.893 -3.015,4.536 -1.531,7.932 1.484,3.395 3.107,6.558 4.871,9.491 1.762,2.93 4.025,4.703 6.791,5.315 C -4.611,2.31 -2.152,1.743 0,0 m -20.206,-100.53 c -7.348,0 -11.022,3.228 -11.022,9.686 l 0,55.776 c 0,6.457 3.674,9.685 11.022,9.685 l 26.719,0 c 5.715,0 8.572,-2.95 8.572,-8.85 0,-5.901 -2.857,-8.851 -8.572,-8.851 l -15.698,0 0,-10.799 13.471,0 c 5.715,0 8.572,-2.97 8.572,-8.906 0,-5.938 -2.857,-8.906 -8.572,-8.906 l -13.471,0 0,-11.133 15.698,0 c 5.715,0 8.572,-2.95 8.572,-8.851 0,-5.9 -2.857,-8.851 -8.572,-8.851 l -26.719,0 z"
         inkscape:connector-curvature="0"
         id="path38"
         style="fill:#f19c1f;fill-opacity:1;fill-rule:nonzero;stroke:none" /></g><g
       transform="matrix(1.25,0,0,-1.25,473.49362,330.1105)"
       id="g40"><path
         d="m 0,0 0,-17.145 6.346,0 c 6.234,0 9.351,2.857 9.351,8.573 C 15.697,-2.858 12.58,0 6.346,0 L 0,0 z M 24.158,-28.055 35.18,-42.527 c 1.633,-2.153 2.449,-4.453 2.449,-6.903 0,-2.449 -1.484,-4.814 -4.453,-7.096 -2.969,-2.284 -5.697,-3.424 -8.183,-3.424 -2.486,0 -4.843,1.502 -7.069,4.508 L 0,-31.506 0,-50.32 c 0,-6.458 -3.674,-9.687 -11.021,-9.687 -7.348,0 -11.022,3.229 -11.022,9.687 l 0,55.775 c 0,6.457 3.674,9.686 11.022,9.686 l 24.937,0 c 6.16,0 11.281,-2.367 15.363,-7.098 4.082,-4.731 6.123,-9.807 6.123,-15.224 0,-9.685 -3.748,-16.643 -11.244,-20.874"
         inkscape:connector-curvature="0"
         id="path42"
         style="fill:#f19c1f;fill-opacity:1;fill-rule:nonzero;stroke:none" /></g><g
       transform="matrix(1.25,0,0,-1.25,553.99775,393.01088)"
       id="g44"><path
         d="m 0,0 c 0,-6.458 -3.674,-9.687 -11.021,-9.687 -7.348,0 -11.022,3.229 -11.022,9.687 l 0,55.775 c 0,6.457 3.674,9.686 11.022,9.686 C -3.674,65.461 0,62.232 0,55.775 L 0,0 z"
         inkscape:connector-curvature="0"
         id="path46"
         style="fill:#f19c1f;fill-opacity:1;fill-rule:nonzero;stroke:none" /></g><g
       transform="matrix(1.25,0,0,-1.25,574.73262,405.119)"
       id="g48"><path
         d="m 0,0 c -7.348,0 -11.021,3.229 -11.021,9.687 l 0,55.775 c 0,6.457 3.673,9.685 11.021,9.685 l 26.719,0 c 5.714,0 8.572,-2.95 8.572,-8.85 0,-5.901 -2.858,-8.851 -8.572,-8.851 l -15.698,0 0,-10.799 13.471,0 c 5.714,0 8.572,-2.969 8.572,-8.906 0,-5.937 -2.858,-8.906 -8.572,-8.906 l -13.471,0 0,-11.133 15.698,0 c 5.714,0 8.572,-2.95 8.572,-8.85 C 35.291,2.951 32.433,0 26.719,0 L 0,0 z"
         inkscape:connector-curvature="0"
         id="path50"
         style="fill:#f19c1f;fill-opacity:1;fill-rule:nonzero;stroke:none" /></g><g
       transform="matrix(1.25,0,0,-1.25,663.3435,405.39737)"
       id="g52"><path
         d="m 0,0 c -7.145,0 -14.075,1.133 -20.791,3.396 -6.717,2.263 -10.075,6.309 -10.075,12.135 0,5.825 2.635,8.74 7.904,8.74 0.779,0 3.877,-1.022 9.296,-3.062 5.418,-2.041 10.103,-3.062 14.056,-3.062 3.952,0 5.927,1.67 5.927,5.01 0,2.19 -1.355,4.017 -4.063,5.484 -2.709,1.464 -6.484,2.996 -11.327,4.591 -4.843,1.595 -7.877,2.801 -9.102,3.619 -5.641,3.747 -8.461,9.212 -8.461,16.392 0,7.181 2.357,12.998 7.07,17.451 4.6,4.378 10.038,6.569 16.309,6.569 6.271,0 11.726,-0.688 16.365,-2.06 8.685,-2.747 12.182,-6.801 10.495,-12.163 -1.69,-5.362 -4.78,-7.858 -9.27,-7.486 -0.409,0 -2.636,0.759 -6.68,2.282 -4.045,1.52 -7.635,2.282 -10.77,2.282 -3.137,0 -4.704,-1.541 -4.704,-4.62 0,-1.968 1.326,-3.665 3.98,-5.094 2.653,-1.428 6.392,-2.987 11.216,-4.675 4.823,-1.689 7.885,-2.978 9.186,-3.869 5.713,-3.86 8.572,-9.601 8.572,-17.227 0,-7.626 -2.449,-13.666 -7.348,-18.119 C 13.071,2.172 7.143,0 0,0"
         inkscape:connector-curvature="0"
         id="path54"
         style="fill:#f19c1f;fill-opacity:1;fill-rule:nonzero;stroke:none" /></g><g
       transform="matrix(1.25,0,0,-1.25,514.81687,453.14387)"
       id="g56"><path
         d="m 0,0 15.475,18.592 c 2.522,3.042 5.936,4.564 10.242,4.564 7.347,0 11.021,-3.228 11.021,-9.685 l 0,-55.776 c 0,-6.457 -3.674,-9.686 -11.021,-9.686 -7.348,0 -11.022,3.229 -11.022,9.686 l 0,30.727 L 0,-28.834 l -14.695,17.145 0,-30.616 c 0,-6.457 -3.674,-9.686 -11.022,-9.686 -7.347,0 -11.021,3.229 -11.021,9.686 l 0,55.776 c 0,6.568 3.674,9.797 11.021,9.685 4.231,-0.038 7.607,-1.558 10.131,-4.564 L 0,0 z"
         inkscape:connector-curvature="0"
         id="path58"
         style="fill:#e12f31;fill-opacity:1;fill-rule:nonzero;stroke:none" /></g></g><g
     id="g3094"
     inkscape:export-xdpi="150"
     inkscape:export-ydpi="150"><g
       transform="matrix(1.25,0,0,-1.25,581.81637,622.67088)"
       id="g60"><path
         d="m 0,0 c -3.707,3.258 -8.709,4.91 -14.867,4.91 -7.299,0 -13.502,-2.828 -17.942,-8.181 l -7.802,-9.375 -7.897,9.417 c -2.281,2.717 -5.019,4.782 -8.117,6.153 0.133,0.373 0.262,0.758 0.385,1.152 1.373,4.358 4.105,19.127 -18.328,26.223 l -0.089,0.027 -0.09,0.028 c -6.119,1.81 -13.268,2.728 -21.25,2.728 -9.673,0 -18.166,-3.414 -25.242,-10.146 C -128.57,16.01 -132.3,6.959 -132.3,-3.943 c 0,-9.327 3.215,-17.202 9.362,-23.088 -8.719,-1.881 -14.122,-9.059 -14.122,-19.342 0,-6.356 2.357,-17.813 18.143,-23.131 8.554,-2.883 17.499,-4.344 26.585,-4.344 1.77,0 3.5,0.096 5.188,0.287 0.729,-5.945 3.554,-9.636 5.976,-11.765 3.707,-3.258 8.709,-4.91 14.867,-4.91 6.158,0 11.16,1.652 14.867,4.91 2.807,2.467 6.155,7.033 6.155,14.775 l 0,3.584 4.718,-5.508 4.672,5.485 0,-3.561 c 0,-7.742 3.346,-12.308 6.155,-14.775 3.707,-3.258 8.709,-4.91 14.867,-4.91 6.158,0 11.16,1.652 14.867,4.91 2.807,2.467 6.154,7.033 6.154,14.775 l 0,55.776 C 6.154,-7.033 2.807,-2.467 0,0"
         inkscape:connector-curvature="0"
         id="path62"
         style="fill:#3a3a3a;fill-opacity:1;fill-rule:nonzero;stroke:none" /></g><g
       transform="matrix(1.25,0,0,-1.25,531.08637,657.9785)"
       id="g64"><path
         d="m 0,0 15.475,18.592 c 2.521,3.043 5.935,4.564 10.242,4.564 7.347,0 11.021,-3.228 11.021,-9.685 l 0,-55.776 c 0,-6.457 -3.674,-9.685 -11.021,-9.685 -7.348,0 -11.022,3.228 -11.022,9.685 l 0,30.727 L 0,-28.834 l -14.695,17.145 0,-30.616 c 0,-6.457 -3.674,-9.685 -11.022,-9.685 -7.348,0 -11.022,3.228 -11.022,9.685 l 0,55.776 c 0,6.568 3.674,9.797 11.022,9.685 4.231,-0.037 7.606,-1.558 10.131,-4.564 L 0,0 z"
         inkscape:connector-curvature="0"
         id="path66"
         style="fill:#e12f31;fill-opacity:1;fill-rule:nonzero;stroke:none" /></g><g
       transform="matrix(1.25,0,0,-1.25,466.402,702.4805)"
       id="g68"><path
         d="m 0,0 c -8.039,0 -15.835,1.273 -23.393,3.82 -7.557,2.547 -11.336,7.098 -11.336,13.655 0,6.552 2.965,9.832 8.894,9.832 0.877,0 4.363,-1.149 10.459,-3.446 6.096,-2.295 11.367,-3.443 15.814,-3.443 4.447,0 6.669,1.879 6.669,5.637 0,2.463 -1.524,4.519 -4.572,6.168 -3.048,1.648 -7.295,3.371 -12.744,5.168 -5.449,1.793 -8.862,3.15 -10.24,4.07 -6.346,4.215 -9.52,10.365 -9.52,18.443 0,8.08 2.652,14.625 7.954,19.635 5.178,4.926 11.294,7.391 18.35,7.391 7.057,0 13.194,-0.774 18.413,-2.319 9.771,-3.09 13.705,-7.65 11.806,-13.683 -1.901,-6.033 -5.376,-8.842 -10.428,-8.424 -0.459,0 -2.965,0.855 -7.516,2.568 -4.55,1.711 -8.59,2.567 -12.118,2.567 -3.529,0 -5.292,-1.733 -5.292,-5.198 0,-2.214 1.491,-4.123 4.479,-5.73 2.983,-1.607 7.19,-3.361 12.618,-5.262 5.429,-1.9 8.873,-3.349 10.334,-4.351 6.43,-4.344 9.646,-10.803 9.646,-19.383 0,-8.58 -2.756,-15.377 -8.268,-20.387 C 14.706,2.443 8.036,0 0,0"
         inkscape:connector-curvature="0"
         id="path70"
         style="fill:#f19c1f;fill-opacity:1;fill-rule:nonzero;stroke:none" /></g></g></svg>